<?xml version="1.0" encoding="UTF-8" standalone="no"?>
<!-- Uploaded to: SVG Repo, www.svgrepo.com, Generator: SVG Repo Mixer Tools -->

<svg
   width="800px"
   height="800px"
   viewBox="0 0 24 24"
   fill="none"
   version="1.1"
   id="svg2"
   sodipodi:docname="eye-svgrepo-com.svg"
   xml:space="preserve"
   inkscape:export-filename="eye-svgrepo-com.svg"
   inkscape:export-xdpi="96"
   inkscape:export-ydpi="96"
   inkscape:version="1.4.2 (f4327f4, 2025-05-13)"
   xmlns:inkscape="http://www.inkscape.org/namespaces/inkscape"
   xmlns:sodipodi="http://sodipodi.sourceforge.net/DTD/sodipodi-0.dtd"
   xmlns="http://www.w3.org/2000/svg"
   xmlns:svg="http://www.w3.org/2000/svg"><defs
     id="defs2" /><sodipodi:namedview
     id="namedview2"
     pagecolor="#ffffff"
     bordercolor="#000000"
     borderopacity="0.25"
     inkscape:showpageshadow="2"
     inkscape:pageopacity="0.0"
     inkscape:pagecheckerboard="0"
     inkscape:deskcolor="#d1d1d1"
     inkscape:zoom="1.031492"
     inkscape:cx="328.16541"
     inkscape:cy="530.78452"
     inkscape:window-width="2560"
     inkscape:window-height="1369"
     inkscape:window-x="1358"
     inkscape:window-y="-8"
     inkscape:window-maximized="1"
     inkscape:current-layer="svg2" /><path
     d="m 17.260432,12.059932 c 0,2.916485 -2.364133,5.280619 -5.280618,5.280619 -2.9163109,0 -5.280567,-2.364134 -5.280567,-5.280619 0,-2.9164863 2.3642561,-5.2806182 5.280567,-5.2806182 2.916485,0 5.280618,2.3641319 5.280618,5.2806182 z"
     stroke="#000000"
     stroke-width="2"
     stroke-linecap="round"
     stroke-linejoin="round"
     id="path1"
     style="stroke-width:0.971736;stroke-dasharray:none" /><path
     d="m 11.976214,5.0685687 c -5.0367955,0 -9.3003769,2.931345 -10.7337793,6.9725623 1.4333799,4.041198 5.6969838,6.972561 10.7337793,6.972561 5.036728,0 9.300332,-2.931363 10.733757,-6.972561 C 21.276546,7.9999436 17.012942,5.0685687 11.976214,5.0685687 Z"
     stroke="#000000"
     stroke-width="2.11704"
     stroke-linecap="round"
     stroke-linejoin="round"
     id="path2" /><g
     style="fill:#000000"
     id="g2"
     transform="matrix(0.32154929,0,0,0.32154929,6.9551508,6.4324706)"><path
       d="M 16,16.654239 A 5.0415002,5.0415002 0 1 0 16,6.5712386 5.0415002,5.0415002 0 0 0 16,16.654239 Z m 0,2.215 c -6.703,0 -11,3.699 -11,5.5 v 3.363 h 22 v -3.363 c 0,-2.178 -4.068,-5.5 -11,-5.5 z"
       id="path1-0" /></g></svg>
